<svg width="80" height="100" viewBox="0 0 80 100" fill="none" xmlns="http://www.w3.org/2000/svg">
<path d="M75 0C73.6739 0 72.4021 0.526784 71.4645 1.46447C70.5268 2.40215 70 3.67392 70 5V32.3L65 35.65V5C65 3.67392 64.4732 2.40215 63.5355 1.46447C62.5979 0.526784 61.3261 0 60 0C58.6739 0 57.4021 0.526784 56.4645 1.46447C55.5268 2.40215 55 3.67392 55 5V35.65L50 32.3V5C50 3.67392 49.4732 2.40215 48.5355 1.46447C47.5979 0.526784 46.3261 0 45 0C43.6739 0 42.4021 0.526784 41.4645 1.46447C40.5268 2.40215 40 3.67392 40 5V35C40.0043 35.8235 40.2119 36.6333 40.6044 37.3573C40.9969 38.0812 41.5622 38.6971 42.25 39.15L55 47.7V95C55 96.3261 55.5268 97.5979 56.4645 98.5355C57.4021 99.4732 58.6739 100 60 100C61.3261 100 62.5979 99.4732 63.5355 98.5355C64.4732 97.5979 65 96.3261 65 95V47.7L77.75 39.15C78.4378 38.6971 79.0031 38.0812 79.3956 37.3573C79.7881 36.6333 79.9957 35.8235 80 35V5C80 3.67392 79.4732 2.40215 78.5355 1.46447C77.5979 0.526784 76.3261 0 75 0ZM25 0C18.3696 0 12.0107 2.63392 7.32233 7.32233C2.63392 12.0107 0 18.3696 0 25V55C0 56.3261 0.526785 57.5979 1.46447 58.5355C2.40215 59.4732 3.67392 60 5 60H20V95C20 96.3261 20.5268 97.5979 21.4645 98.5355C22.4021 99.4732 23.6739 100 25 100C26.3261 100 27.5979 99.4732 28.5355 98.5355C29.4732 97.5979 30 96.3261 30 95V5C30 3.67392 29.4732 2.40215 28.5355 1.46447C27.5979 0.526784 26.3261 0 25 0ZM20 50H10V25C9.99837 21.8967 10.9593 18.8694 12.7503 16.3351C14.5413 13.8008 17.0742 11.8844 20 10.85V50Z" fill="#00B956"/>
</svg>
