<svg width="48" height="49" viewBox="0 0 48 49" fill="none" xmlns="http://www.w3.org/2000/svg">
<path d="M24.0002 0.222168C10.747 0.222168 0 11.2391 0 24.8298C0 35.7021 6.87679 44.9261 16.4128 48.1799C17.6123 48.4077 18.0526 47.6461 18.0526 46.9961C18.0526 46.4093 18.0304 44.4709 18.02 42.4147C11.3431 43.9032 9.93424 39.5113 9.93424 39.5113C8.84249 36.667 7.26945 35.9107 7.26945 35.9107C5.09192 34.3834 7.43359 34.4148 7.43359 34.4148C9.84363 34.5884 11.1126 36.9506 11.1126 36.9506C13.2532 40.7126 16.7272 39.625 18.0967 38.9962C18.3121 37.4058 18.9341 36.3202 19.6205 35.7057C14.2897 35.0835 8.6859 32.9735 8.6859 23.5446C8.6859 20.858 9.62345 18.6628 11.1587 16.9395C10.9095 16.3197 10.088 13.8169 11.3912 10.4274C11.3912 10.4274 13.4066 9.76603 17.993 12.9498C19.9074 12.4045 21.9606 12.1311 24.0002 12.1217C26.0398 12.1311 28.0946 12.4045 30.0126 12.9498C34.5934 9.76603 36.606 10.4274 36.606 10.4274C37.9123 13.8169 37.0905 16.3197 36.8413 16.9395C38.3801 18.6628 39.3113 20.858 39.3113 23.5446C39.3113 32.9959 33.6968 35.077 28.3525 35.6862C29.2133 36.4498 29.9804 37.9473 29.9804 40.2432C29.9804 43.5357 29.9526 46.1856 29.9526 46.9961C29.9526 47.651 30.3846 48.4183 31.6011 48.1766C41.132 44.9191 48 35.6984 48 24.8298C48 11.2391 37.2546 0.222168 24.0002 0.222168Z" fill="white"/>
<path d="M9.16085 35.3846C9.10809 35.5056 8.92085 35.5419 8.75027 35.4588C8.57652 35.3793 8.47893 35.2143 8.53526 35.0929C8.58683 34.9682 8.77447 34.9335 8.94782 35.017C9.12197 35.0965 9.22115 35.2631 9.16085 35.3846Z" fill="#161514"/>
<path d="M10.1312 36.4852C10.0169 36.5929 9.79358 36.5429 9.64205 36.3726C9.48535 36.2027 9.456 35.9756 9.57183 35.8662C9.68965 35.7585 9.90624 35.8089 10.0633 35.9788C10.22 36.1507 10.2506 36.3762 10.1312 36.4852Z" fill="#161514"/>
<path d="M11.0757 37.8884C10.929 37.992 10.689 37.8948 10.5406 37.6781C10.3938 37.4615 10.3938 37.2016 10.5438 37.0975C10.6925 36.9935 10.929 37.0871 11.0793 37.3021C11.2257 37.5224 11.2257 37.7822 11.0757 37.8884Z" fill="#161514"/>
<path d="M12.3698 39.2441C12.2385 39.3914 11.9588 39.3518 11.7541 39.1509C11.5446 38.9544 11.4863 38.6756 11.618 38.5283C11.7509 38.3807 12.0322 38.4222 12.2385 38.6215C12.4463 38.8176 12.5098 39.0984 12.3698 39.2441Z" fill="#161514"/>
<path d="M14.1549 40.0312C14.097 40.222 13.8276 40.3088 13.5563 40.2277C13.2853 40.1442 13.108 39.9206 13.1628 39.7278C13.2191 39.5357 13.4896 39.4453 13.763 39.5321C14.0335 39.6152 14.2112 39.8371 14.1549 40.0312Z" fill="#161514"/>
<path d="M16.1154 40.1774C16.1221 40.3783 15.892 40.5449 15.6072 40.5486C15.3208 40.555 15.0891 40.3924 15.0859 40.1947C15.0859 39.9918 15.3109 39.8268 15.5973 39.8219C15.8821 39.8163 16.1154 39.9777 16.1154 40.1774Z" fill="#161514"/>
<path d="M17.9397 39.8614C17.9738 40.0574 17.7759 40.2588 17.493 40.3124C17.2149 40.3641 16.9575 40.243 16.9222 40.0486C16.8877 39.8476 17.0892 39.6463 17.3669 39.5943C17.6501 39.5442 17.9036 39.662 17.9397 39.8614Z" fill="#161514"/>
</svg>
