<svg width="48" height="49" viewBox="0 0 48 49" fill="none" xmlns="http://www.w3.org/2000/svg">
<path fill-rule="evenodd" clip-rule="evenodd" d="M24 0C37.2548 0 48 10.9073 48 24.3621C48 37.817 37.2548 48.7242 24 48.7242C10.7452 48.7242 0 37.817 0 24.3621C0 10.9073 10.7452 0 24 0ZM30.3941 21.2746C30.2774 20.312 29.9859 19.5562 29.4683 18.8867C28.7961 18.0246 27.9372 17.5083 26.6655 17.2021C25.8368 16.998 25.5019 17.0214 25.2022 17.2993C24.923 17.5597 24.8685 18.0817 25.0818 18.4198C25.2319 18.6651 25.405 18.753 25.8864 18.8489C26.5275 18.9687 26.9706 19.1241 27.3736 19.358C28.229 19.8594 28.6274 20.644 28.6701 21.9142C28.69 22.5106 28.7408 22.694 28.946 22.9055C29.3263 23.2922 30.0032 23.217 30.2904 22.7542C30.3957 22.5798 30.4118 22.5039 30.4229 22.0989C30.4303 21.8482 30.4197 21.475 30.3941 21.2746ZM30.4055 15.3686C32.4393 17.038 33.5757 19.4108 33.7446 22.36C33.8157 23.5216 33.7213 23.8999 33.3176 24.1154C32.9533 24.3151 32.5405 24.2494 32.2573 23.9488C32.0697 23.7533 31.9977 23.4858 32.0005 23.0123C32.0087 21.7031 31.7116 20.241 31.2284 19.2265C30.6693 18.0457 29.8049 17.0409 28.7176 16.3063C27.7652 15.661 26.5047 15.2252 25.2826 15.1167C24.4898 15.0463 24.2068 14.91 24.0546 14.5242C23.9603 14.2934 23.9852 13.8945 24.0958 13.7158C24.2002 13.5511 24.4347 13.3689 24.6005 13.3207C24.7762 13.2687 25.8001 13.3596 26.3563 13.4718C27.8745 13.7855 29.2596 14.4305 30.4055 15.3686ZM37.4522 33.7175C37.3954 33.5489 37.2628 33.2889 37.1681 33.1396C36.5712 32.2248 33.3645 29.6774 31.7635 28.8442C30.8493 28.3676 30.172 28.2087 29.6699 28.3579C29.1299 28.5121 28.8457 28.7672 27.941 29.9085C27.5763 30.366 27.2021 30.7946 27.1026 30.8619C26.8563 31.0353 26.3732 31.175 26.0321 31.175C25.2411 31.1701 23.8059 30.6501 22.7022 29.9663C21.8449 29.4366 20.746 28.488 19.9029 27.549C18.9081 26.4462 18.2308 25.4735 17.6955 24.3756C17.004 22.9647 16.8288 22.1027 17.1177 21.4718C17.1887 21.3129 17.2835 21.1444 17.326 21.0914C17.3687 21.0433 17.814 20.6725 18.3065 20.268C19.2729 19.4879 19.4292 19.3097 19.6091 18.7752C19.8365 18.0962 19.775 17.4028 19.4244 16.7046C19.1544 16.1749 18.4487 15.0192 17.9371 14.2728C17.2598 13.2905 15.5735 11.1909 15.2372 10.9068C14.6309 10.406 13.8541 10.3193 12.9967 10.6564C12.0921 11.0128 10.3963 12.3996 9.67156 13.3675C9.0179 14.2439 8.76693 14.8651 8.729 15.6837C8.69587 16.3578 8.75269 16.6371 9.10321 17.4991C11.8458 24.26 15.9382 29.6581 21.5607 33.9439C24.4974 36.183 27.5431 37.8877 30.7025 39.0531C32.545 39.732 33.3455 39.7657 34.2881 39.2072C34.686 38.9663 35.6712 37.9407 36.2207 37.1943C37.1301 35.9519 37.4665 35.3789 37.5612 34.9214C37.6275 34.6084 37.5754 34.0643 37.4522 33.7175ZM36.2411 18.4752C36.8181 20.0008 37.0948 21.3691 37.1555 23.0374C37.1651 23.3669 37.1606 23.9707 37.1396 24.3797C37.0958 25.1638 37.0539 25.3196 36.8315 25.527C36.4741 25.8674 35.7774 25.7863 35.5132 25.3761C35.3752 25.156 35.3559 24.9947 35.3825 24.0787C35.4592 21.3689 34.9193 19.2472 33.6187 17.1257C32.0645 14.5804 29.7398 12.8658 26.7168 12.0269C25.9459 11.8134 25.2962 11.6833 24.2858 11.5452C23.6276 11.4578 23.4835 11.4208 23.321 11.3193C22.8303 11.0003 22.8238 10.1924 23.313 9.86847C23.5654 9.69749 23.7516 9.68985 24.5744 9.79682C26.9872 10.1029 29.1402 10.8307 30.9093 11.9304C32.1773 12.7197 32.9769 13.4288 34.0062 14.6707C35.095 15.9952 35.6715 16.9745 36.2411 18.4752Z" fill="white"/>
</svg>
