<?xml version="1.0" encoding="utf-8"?>
<!-- Generator: Adobe Illustrator 25.2.0, SVG Export Plug-In . SVG Version: 6.00 Build 0)  -->
<svg version="1.1" id="Слой_1" xmlns="http://www.w3.org/2000/svg" xmlns:xlink="http://www.w3.org/1999/xlink" x="0px" y="0px"
	 viewBox="0 0 124 40.4" style="enable-background:new 0 0 124 40.4;" xml:space="preserve">
<style type="text/css">
	.st0{fill:#666666;}
	.st1{font-family:'ArialMT';}
	.st2{font-size:32px;}
	.st3{fill:#6D6EAF;}
	.st4{fill:#55B199;}
</style>
<g id="Слой_2_1_">
	<g id="Слой_1-2">
		<text transform="matrix(1 0 0 1 28.7317 31.954)" class="st0 st1 st2">FAIRO</text>
		<path class="st3" d="M1.9,21.9L19.2,1.3c1.2-1.5,3.4-1.7,4.9-0.4l0,0c1.5,1.2,1.7,3.4,0.4,4.9L7.2,26.4c-1.2,1.5-3.4,1.7-4.9,0.4
			l0,0C0.9,25.6,0.7,23.4,1.9,21.9z"/>
		<path class="st3" d="M9.2,28.1l8.1-9.6c1.2-1.5,3.4-1.7,4.9-0.4l0,0c1.5,1.2,1.7,3.4,0.4,4.9l-8.1,9.6c-1.2,1.5-3.4,1.7-4.9,0.4
			l0,0C8.2,31.7,8,29.5,9.2,28.1z"/>
		<path class="st4" d="M16.5,33.5L16.5,33.5c1.4-1.7,3.9-1.9,5.6-0.5l0,0c1.7,1.4,1.9,3.9,0.5,5.6l0,0c-1.4,1.7-3.9,1.9-5.6,0.5l0,0
			C15.3,37.7,15.1,35.2,16.5,33.5z"/>
		<path class="st0" d="M70.2,3.8L70.2,3.8c1.4-1.7,3.9-1.9,5.6-0.5l0,0c1.7,1.4,1.9,3.9,0.5,5.6l0,0c-1.4,1.7-3.9,1.9-5.6,0.5l0,0
			C69.1,8,68.8,5.5,70.2,3.8z"/>
	</g>
</g>
</svg>
