<?xml version="1.0" encoding="utf-8"?>
<!-- Generator: Adobe Illustrator 24.3.0, SVG Export Plug-In . SVG Version: 6.00 Build 0)  -->
<svg version="1.1" id="Слой_1" xmlns="http://www.w3.org/2000/svg" xmlns:xlink="http://www.w3.org/1999/xlink" x="0px" y="0px"
	 viewBox="0 0 121.6 41.2" style="enable-background:new 0 0 121.6 41.2;" xml:space="preserve">
<style type="text/css">
	.st0{fill:#FFFFFF;}
	.st1{font-family:'ProximaNova-Bold';}
	.st2{font-size:32px;}
	.st3{fill:#6D6EAF;}
	.st4{fill:#55B199;}
</style>
<g id="Слой_2_1_">
	<g id="Слой_1-2">
		<text transform="matrix(1 0 0 1 27.64 31.93)" class="st0 st1 st2">FAIRO</text>
		<path class="st3" d="M0.8,21.8L18.1,1.2c1.2-1.5,3.4-1.7,4.9-0.4l0,0c1.5,1.2,1.7,3.4,0.4,4.9L6.1,26.3c-1.2,1.5-3.4,1.7-4.9,0.4
			l0,0C-0.2,25.5-0.4,23.3,0.8,21.8z"/>
		<path class="st3" d="M8.1,28l8.1-9.6c1.2-1.5,3.4-1.7,4.9-0.4l0,0c1.5,1.2,1.7,3.4,0.4,4.9l-8.1,9.6c-1.2,1.5-3.4,1.7-4.9,0.4l0,0
			C7.1,31.6,6.9,29.4,8.1,28z"/>
		<path class="st4" d="M15.4,33.4L15.4,33.4c1.4-1.7,3.9-1.9,5.6-0.5l0,0c1.7,1.4,1.9,3.9,0.5,5.6l0,0c-1.4,1.7-3.9,1.9-5.6,0.5l0,0
			C14.2,37.6,14,35.1,15.4,33.4z"/>
		<path class="st0" d="M69.1,3.7L69.1,3.7C70.5,2,73,1.8,74.7,3.2l0,0c1.7,1.4,1.9,3.9,0.5,5.6l0,0c-1.4,1.7-3.9,1.9-5.6,0.5l0,0
			C68,7.9,67.7,5.4,69.1,3.7z"/>
	</g>
</g>
</svg>
