<?xml version="1.0" encoding="utf-8"?>
<!-- Generator: Adobe Illustrator 23.0.1, SVG Export Plug-In . SVG Version: 6.00 Build 0)  -->
<svg version="1.1" id="Слой_1" xmlns="http://www.w3.org/2000/svg" xmlns:xlink="http://www.w3.org/1999/xlink" x="0px" y="0px"
	 viewBox="0 0 121.6 41.2" style="enable-background:new 0 0 121.6 41.2;" xml:space="preserve">
<style type="text/css">
	.st0{enable-background:new    ;}
	.st1{fill:#FFFFFF;}
</style>
<g id="Слой_2_1_">
	<g id="Слой_1-2">
		<g class="st0">
			<path class="st1" d="M34.3,31.9h-4.5V10.6h15.1v4H34.3v4.5h10.3v4H34.3V31.9z"/>
			<path class="st1" d="M67.9,31.9h-5.2l-1.3-3.6h-9.2l-1.3,3.6h-5.2L54,10.6h5.7L67.9,31.9z M60.2,24.3l-3.3-9.2l-3.3,9.2H60.2z"/>
			<path class="st1" d="M74.5,31.9H70V10.6h4.5V31.9z"/>
			<path class="st1" d="M96,31.9h-5.2l-4.2-7.6h-3.3v7.6h-4.5V10.6h10c2.2,0,3.9,0.6,5.2,1.9c1.3,1.3,1.9,2.9,1.9,5
				c0,1.7-0.5,3.2-1.4,4.3c-0.9,1.1-2,1.8-3.3,2.1L96,31.9z M88,20.3c0.9,0,1.7-0.3,2.3-0.8c0.6-0.5,0.9-1.2,0.9-2.1
				s-0.3-1.6-0.9-2.1s-1.4-0.8-2.3-0.8h-4.8v5.8H88z"/>
			<path class="st1" d="M109.4,32.3c-3.2,0-5.9-1-8-3.1s-3.2-4.7-3.2-7.9s1.1-5.8,3.2-7.9s4.8-3.1,8-3.1s5.9,1,8,3.1
				s3.2,4.7,3.2,7.9s-1.1,5.9-3.2,7.9C115.3,31.3,112.6,32.3,109.4,32.3z M104.7,26.3c1.2,1.3,2.7,2,4.7,2c1.9,0,3.5-0.7,4.7-2
				s1.8-3,1.8-5s-0.6-3.7-1.8-5c-1.2-1.3-2.8-2-4.7-2c-1.9,0-3.5,0.7-4.7,2s-1.8,3-1.8,5C102.9,23.3,103.5,25,104.7,26.3z"/>
		</g>
		<path class="st1" d="M0.8,21.8L18.1,1.2c1.2-1.5,3.4-1.7,4.9-0.4l0,0c1.5,1.2,1.7,3.4,0.4,4.9L6.1,26.3c-1.2,1.5-3.4,1.7-4.9,0.4
			l0,0C-0.2,25.5-0.4,23.3,0.8,21.8z"/>
		<path class="st1" d="M8.1,28l8.1-9.6c1.2-1.5,3.4-1.7,4.9-0.4l0,0c1.5,1.2,1.7,3.4,0.4,4.9l-8.1,9.6c-1.2,1.5-3.4,1.7-4.9,0.4l0,0
			C7.1,31.6,6.9,29.4,8.1,28z"/>
		<path class="st1" d="M15.4,33.4L15.4,33.4c1.4-1.7,3.9-1.9,5.6-0.5l0,0c1.7,1.4,1.9,3.9,0.5,5.6l0,0c-1.4,1.7-3.9,1.9-5.6,0.5l0,0
			C14.2,37.6,14,35.1,15.4,33.4z"/>
		<path class="st1" d="M69.1,3.7L69.1,3.7C70.5,2,73,1.8,74.7,3.2l0,0c1.7,1.4,1.9,3.9,0.5,5.6l0,0c-1.4,1.7-3.9,1.9-5.6,0.5l0,0
			C68,7.9,67.7,5.4,69.1,3.7z"/>
	</g>
</g>
</svg>
