<?xml version="1.0" encoding="utf-8"?>
<!-- Generator: Adobe Illustrator 25.2.0, SVG Export Plug-In . SVG Version: 6.00 Build 0)  -->
<svg version="1.1" id="Слой_1" xmlns="http://www.w3.org/2000/svg" xmlns:xlink="http://www.w3.org/1999/xlink" x="0px" y="0px"
	 viewBox="0 0 124.2 41.8" style="enable-background:new 0 0 124.2 41.8;" xml:space="preserve">
<style type="text/css">
	.st0{fill:#FFFFFF;}
	.st1{font-family:'ArialMT';}
	.st2{font-size:32px;}
	.st3{fill:#55B199;}
</style>
<g id="Слой_2_1_">
	<g id="Слой_1-2">
		<text transform="matrix(1 0 0 1 28.1598 32.554)" class="st0 st1 st2">FAIRO</text>
		<path class="st0" d="M1.3,22.4L18.6,1.8c1.2-1.5,3.4-1.7,4.9-0.4l0,0c1.5,1.2,1.7,3.4,0.4,4.9L6.6,26.9c-1.2,1.5-3.4,1.7-4.9,0.4
			l0,0C0.3,26.1,0.1,23.9,1.3,22.4z"/>
		<path class="st0" d="M8.6,28.6l8.1-9.6c1.2-1.5,3.4-1.7,4.9-0.4l0,0c1.5,1.2,1.7,3.4,0.4,4.9l-8.1,9.6c-1.2,1.5-3.4,1.7-4.9,0.4
			l0,0C7.6,32.2,7.4,30,8.6,28.6z"/>
		<path class="st3" d="M15.9,34L15.9,34c1.4-1.7,3.9-1.9,5.6-0.5l0,0c1.7,1.4,1.9,3.9,0.5,5.6l0,0c-1.4,1.7-3.9,1.9-5.6,0.5l0,0
			C14.7,38.2,14.5,35.7,15.9,34z"/>
		<path class="st0" d="M69.6,4.3L69.6,4.3c1.4-1.7,3.9-1.9,5.6-0.5l0,0c1.7,1.4,1.9,3.9,0.5,5.6l0,0c-1.4,1.7-3.9,1.9-5.6,0.5l0,0
			C68.5,8.5,68.2,6,69.6,4.3z"/>
	</g>
</g>
</svg>
