<?xml version="1.0" encoding="utf-8"?>
<!-- Generator: Adobe Illustrator 25.2.0, SVG Export Plug-In . SVG Version: 6.00 Build 0)  -->
<svg version="1.1" id="Слой_1" xmlns="http://www.w3.org/2000/svg" xmlns:xlink="http://www.w3.org/1999/xlink" x="0px" y="0px"
	 viewBox="0 0 122.2 40" style="enable-background:new 0 0 122.2 40;" xml:space="preserve">
<style type="text/css">
	.st0{font-family:'ArialMT';}
	.st1{font-size:32px;}
	.st2{fill:#6D6EAF;}
	.st3{fill:#55B199;}
</style>
<g id="Слой_2_1_">
	<g id="Слой_1-2">
		<text transform="matrix(1 0 0 1 27.628 31.992)" class="st0 st1">FAIRO</text>
		<path class="st2" d="M0.8,21.9L18.1,1.3c1.2-1.5,3.4-1.7,4.9-0.4l0,0c1.5,1.2,1.7,3.4,0.4,4.9L6.1,26.4c-1.2,1.5-3.4,1.7-4.9,0.4
			l0,0C-0.2,25.6-0.4,23.4,0.8,21.9z"/>
		<path class="st2" d="M8.1,28.1l8.1-9.6c1.2-1.5,3.4-1.7,4.9-0.4l0,0c1.5,1.2,1.7,3.4,0.4,4.9l-8.1,9.6c-1.2,1.5-3.4,1.7-4.9,0.4
			l0,0C7.1,31.7,6.9,29.5,8.1,28.1z"/>
		<path class="st3" d="M15.4,33.5L15.4,33.5c1.4-1.7,3.9-1.9,5.6-0.5l0,0c1.7,1.4,1.9,3.9,0.5,5.6l0,0c-1.4,1.7-3.9,1.9-5.6,0.5l0,0
			C14.2,37.7,14,35.2,15.4,33.5z"/>
		<path d="M69.1,3.8L69.1,3.8c1.4-1.7,3.9-1.9,5.6-0.5l0,0c1.7,1.4,1.9,3.9,0.5,5.6l0,0c-1.4,1.7-3.9,1.9-5.6,0.5l0,0
			C68,8,67.7,5.5,69.1,3.8z"/>
	</g>
</g>
</svg>
