<svg width="48" height="49" viewBox="0 0 48 49" fill="none" xmlns="http://www.w3.org/2000/svg">
<path fill-rule="evenodd" clip-rule="evenodd" d="M0 24.3621C0 10.9073 10.7452 0 24 0C37.2548 0 48 10.9073 48 24.3621C48 37.8169 37.2548 48.7242 24 48.7242C10.7452 48.7242 0 37.8169 0 24.3621ZM19.2 38.9794C21.851 38.9794 24 36.7979 24 34.107V29.2345H19.2C16.549 29.2345 14.4 31.416 14.4 34.107C14.4 36.7979 16.549 38.9794 19.2 38.9794ZM14.4 24.3621C14.4 27.0531 16.549 29.2345 19.2 29.2345H24V19.4897H19.2C16.549 19.4897 14.4 21.6712 14.4 24.3621ZM14.4 14.6173C14.4 17.3082 16.549 19.4897 19.2 19.4897H24V9.74485H19.2C16.549 9.74485 14.4 11.9263 14.4 14.6173ZM24 9.74485V19.4897H28.8C31.451 19.4897 33.6 17.3082 33.6 14.6173C33.6 11.9263 31.451 9.74485 28.8 9.74485H24ZM33.6 24.3621C33.6 21.6712 31.451 19.4897 28.8 19.4897C26.149 19.4897 24 21.6712 24 24.3621C24 27.0531 26.149 29.2345 28.8 29.2345C31.451 29.2345 33.6 27.0531 33.6 24.3621Z" fill="white"/>
</svg>
