<?xml version="1.0" encoding="utf-8"?>
<!-- Generator: Adobe Illustrator 25.2.0, SVG Export Plug-In . SVG Version: 6.00 Build 0)  -->
<svg version="1.1" id="Слой_1" xmlns="http://www.w3.org/2000/svg" xmlns:xlink="http://www.w3.org/1999/xlink" x="0px" y="0px"
	 viewBox="0 0 1340 576" style="enable-background:new 0 0 1340 576;" xml:space="preserve">
<style type="text/css">
	.st0{clip-path:url(#SVGID_2_);}
	.st1{fill:#00CC66;}
	.st2{clip-path:url(#SVGID_2_);fill:#16A3BE;}
	.st3{clip-path:url(#SVGID_2_);fill:none;}
	.st4{clip-path:url(#SVGID_2_);fill:none;stroke:#A9F185;stroke-width:2;stroke-miterlimit:10;}
	.st5{fill:#16A3BE;}
	.st6{font-family:'Arial-Black';}
	.st7{font-size:24px;}
</style>
<g>
	<defs>
		<rect id="SVGID_1_" width="1340" height="576"/>
	</defs>
	<clipPath id="SVGID_2_">
		<use xlink:href="#SVGID_1_"  style="overflow:visible;"/>
	</clipPath>
	<g class="st0">
		<rect x="0" class="st1" width="1340" height="569"/>
	</g>
	<rect x="13" y="569" class="st2" width="1327" height="7"/>
	<rect class="st2" width="13" height="576"/>
	<line class="st3" x1="654" y1="246" x2="709" y2="246"/>
	<polygon class="st4" points="854.15,-57.59 457.46,-57.59 259.12,285.95 457.46,629.5 854.15,629.5 1052.5,285.95 	"/>
	<polygon class="st4" points="764.39,103.5 558.12,103.5 454.99,282.13 558.12,460.76 764.39,460.76 867.52,282.13 	"/>
	<polygon class="st4" points="708.15,199.26 613.32,199.26 565.91,281.38 613.32,363.5 708.15,363.5 755.56,281.38 	"/>
	<polygon class="st4" points="939.77,-178.5 400.26,-178.5 130.5,288.73 400.26,755.96 939.77,755.96 1209.53,288.73 	"/>
	<polygon class="st4" points="1012.5,-317.5 294.81,-317.5 -64.04,304.04 294.81,925.58 1012.5,925.58 1371.35,304.04 	"/>
	<rect x="233" class="st2" width="114" height="7"/>
	<line class="st3" x1="305" y1="16" x2="305" y2="32"/>
	<rect x="980" y="0" class="st2" width="114" height="7"/>
	<g class="st0">
		<text transform="matrix(1 0 0 1 251.6997 28.0479)" class="st5 st6 st7">ВХОД</text>
	</g>
	<g class="st0">
		<text transform="matrix(1 0 0 1 985.1716 27.8959)" class="st5 st6 st7">ВЫХОД</text>
	</g>
</g>
<rect y="139" class="st5" width="13" height="58"/>
<rect x="0" y="398" class="st5" width="13" height="45"/>
<rect x="84" y="569" class="st5" width="12" height="7"/>
<rect x="289" y="569" class="st5" width="9" height="7"/>
<rect x="419" y="569" class="st5" width="12" height="7"/>
<rect x="881" y="569" class="st5" width="16" height="7"/>
<rect x="1040" y="569" class="st5" width="11" height="7"/>
<rect x="1210" y="569" class="st5" width="12" height="7"/>
</svg>
