<svg width="48" height="49" viewBox="0 0 48 49" fill="none" xmlns="http://www.w3.org/2000/svg">
<path fill-rule="evenodd" clip-rule="evenodd" d="M48 24.3621C48 37.8169 37.2548 48.7242 24 48.7242C10.7452 48.7242 0 37.8169 0 24.3621C0 10.9073 10.7452 0 24 0C37.2548 0 48 10.9073 48 24.3621ZM16.0715 22.1305C13.6673 23.196 11.1971 24.2909 8.93825 25.5538C7.75877 26.4305 9.32638 27.0506 10.7971 27.6322C11.0309 27.7247 11.2622 27.8162 11.4797 27.9075C11.6607 27.9641 11.8447 28.0235 12.0312 28.0838C13.6669 28.6128 15.4907 29.2027 17.0787 28.3154C19.6873 26.7943 22.149 25.0357 24.6089 23.2785C25.4148 22.7028 26.2205 22.1272 27.0311 21.5602C27.0691 21.5355 27.1119 21.5073 27.1588 21.4765C27.8493 21.0221 29.4024 20.0002 28.8279 21.4083C27.4695 22.9163 26.0144 24.2512 24.5515 25.5934C23.5655 26.498 22.5759 27.4059 21.6099 28.3722C20.7686 29.0661 19.8949 30.4616 20.837 31.4333C23.0069 32.9752 25.2107 34.4798 27.4132 35.9836C28.1299 36.4728 28.8466 36.9621 29.5618 37.4526C30.774 38.435 32.6685 37.6403 32.935 36.1052C33.0535 35.399 33.1725 34.6929 33.2915 33.9867C33.9491 30.084 34.6069 26.1798 35.188 22.2644C35.267 21.6502 35.3565 21.0361 35.4461 20.4216C35.6632 18.9324 35.8806 17.4414 35.9485 15.9441C35.7735 14.4499 33.9887 14.7785 32.9955 15.1145C27.8903 17.0864 22.8361 19.2045 17.8019 21.3599C17.2316 21.6163 16.6535 21.8725 16.0715 22.1305Z" fill="white"/>
</svg>
