<svg width="60" height="60" viewBox="0 0 60 60" fill="none" xmlns="http://www.w3.org/2000/svg">
<path d="M29.9999 5C26.7169 5 23.466 5.64664 20.4328 6.90301C17.3997 8.15938 14.6437 10.0009 12.3222 12.3223C7.63383 17.0107 4.99991 23.3696 4.99991 30C4.97805 35.7728 6.97689 41.3713 10.6499 45.825L5.64991 50.825C5.30302 51.1766 5.06802 51.623 4.97459 52.108C4.88115 52.5929 4.93346 53.0947 5.12491 53.55C5.33255 53.9998 5.66917 54.3778 6.09203 54.636C6.51488 54.8941 7.00491 55.0208 7.49991 55H29.9999C36.6303 55 42.9892 52.3661 47.6776 47.6777C52.366 42.9893 54.9999 36.6304 54.9999 30C54.9999 23.3696 52.366 17.0107 47.6776 12.3223C42.9892 7.63392 36.6303 5 29.9999 5ZM29.9999 50H13.5249L15.8499 47.675C16.3155 47.2066 16.5769 46.573 16.5769 45.9125C16.5769 45.252 16.3155 44.6184 15.8499 44.15C12.5764 40.8801 10.5378 36.5763 10.0816 31.972C9.62543 27.3676 10.7798 22.7475 13.348 18.8988C15.9162 15.0501 19.7394 12.2109 24.1662 10.8649C28.593 9.51897 33.3496 9.74951 37.6255 11.5173C41.9013 13.2851 45.432 16.4807 47.616 20.5597C49.8 24.6388 50.5021 29.3489 49.6027 33.8875C48.7034 38.4262 46.2582 42.5126 42.6838 45.4506C39.1093 48.3886 34.6268 49.9964 29.9999 50Z" fill="#00B956"/>
</svg>
