<svg width="31" height="30" viewBox="0 0 31 30" fill="none" xmlns="http://www.w3.org/2000/svg">
<path d="M15.3775 2.5C13.736 2.5 12.1105 2.82332 10.594 3.45151C9.07741 4.07969 7.69942 5.00043 6.53868 6.16117C4.19448 8.50537 2.87752 11.6848 2.87752 15C2.86659 17.8864 3.86601 20.6857 5.70252 22.9125L3.20252 25.4125C3.02907 25.5883 2.91158 25.8115 2.86486 26.054C2.81814 26.2965 2.84429 26.5474 2.94002 26.775C3.04384 26.9999 3.21215 27.1889 3.42358 27.318C3.63501 27.4471 3.88002 27.5104 4.12752 27.5H15.3775C18.6927 27.5 21.8722 26.183 24.2164 23.8388C26.5606 21.4946 27.8775 18.3152 27.8775 15C27.8775 11.6848 26.5606 8.50537 24.2164 6.16117C21.8722 3.81696 18.6927 2.5 15.3775 2.5ZM15.3775 25H7.14002L8.30252 23.8375C8.53533 23.6033 8.66601 23.2865 8.66601 22.9562C8.66601 22.626 8.53533 22.3092 8.30252 22.075C6.66575 20.4401 5.64649 18.2882 5.41838 15.986C5.19028 13.6838 5.76745 11.3738 7.05155 9.4494C8.33566 7.52505 10.2473 6.10545 12.4607 5.43247C14.6741 4.75948 17.0523 4.87476 19.1903 5.75864C21.3282 6.64253 23.0936 8.24034 24.1856 10.2799C25.2776 12.3194 25.6286 14.6744 25.1789 16.9438C24.7293 19.2131 23.5067 21.2563 21.7194 22.7253C19.9322 24.1943 17.691 24.9982 15.3775 25Z" fill="#66CC99"/>
</svg>
