<svg width="30" height="30" viewBox="0 0 30 30" fill="none" xmlns="http://www.w3.org/2000/svg">
<g clip-path="url(#clip0)">
<path d="M23.75 2.43237C23.4185 2.43237 23.1005 2.57759 22.8661 2.83609C22.6317 3.09459 22.5 3.44518 22.5 3.81075V11.3367L21.25 12.2602V3.81075C21.25 3.44518 21.1183 3.09459 20.8839 2.83609C20.6495 2.57759 20.3315 2.43237 20 2.43237C19.6685 2.43237 19.3505 2.57759 19.1161 2.83609C18.8817 3.09459 18.75 3.44518 18.75 3.81075V12.2602L17.5 11.3367V3.81075C17.5 3.44518 17.3683 3.09459 17.1339 2.83609C16.8995 2.57759 16.5815 2.43237 16.25 2.43237C15.9185 2.43237 15.6005 2.57759 15.3661 2.83609C15.1317 3.09459 15 3.44518 15 3.81075V12.081C15.0011 12.3081 15.053 12.5313 15.1511 12.7309C15.2492 12.9304 15.3905 13.1002 15.5625 13.2251L18.75 15.5821V28.6216C18.75 28.9871 18.8817 29.3377 19.1161 29.5962C19.3505 29.8547 19.6685 29.9999 20 29.9999C20.3315 29.9999 20.6495 29.8547 20.8839 29.5962C21.1183 29.3377 21.25 28.9871 21.25 28.6216V15.5821L24.4375 13.2251C24.6094 13.1002 24.7508 12.9304 24.8489 12.7309C24.947 12.5313 24.9989 12.3081 25 12.081V3.81075C25 3.44518 24.8683 3.09459 24.6339 2.83609C24.3995 2.57759 24.0815 2.43237 23.75 2.43237ZM11.25 2.43237C9.59239 2.43237 8.00268 3.15848 6.83058 4.45096C5.65848 5.74344 5 7.49642 5 9.32427V17.5945C5 17.9601 5.1317 18.3107 5.36612 18.5692C5.60054 18.8277 5.91848 18.9729 6.25 18.9729H10V28.6216C10 28.9871 10.1317 29.3377 10.3661 29.5962C10.6005 29.8547 10.9185 29.9999 11.25 29.9999C11.5815 29.9999 11.8995 29.8547 12.1339 29.5962C12.3683 29.3377 12.5 28.9871 12.5 28.6216V3.81075C12.5 3.44518 12.3683 3.09459 12.1339 2.83609C11.8995 2.57759 11.5815 2.43237 11.25 2.43237ZM10 16.2162H7.5V9.32427C7.49959 8.46877 7.73982 7.6342 8.18757 6.93556C8.63532 6.23692 9.26855 5.70862 10 5.42345V16.2162Z" fill="#66CC99"/>
</g>
<defs>
<clipPath id="clip0">
<rect width="30" height="30" fill="white"/>
</clipPath>
</defs>
</svg>
