<svg width="30" height="30" viewBox="0 0 30 30" fill="none" xmlns="http://www.w3.org/2000/svg">
<path d="M5 15C5 15.3315 5.1317 15.6495 5.36612 15.8839C5.60054 16.1183 5.91848 16.25 6.25 16.25H15.7375L12.8625 19.1125C12.7453 19.2287 12.6523 19.367 12.5889 19.5193C12.5254 19.6716 12.4928 19.835 12.4928 20C12.4928 20.165 12.5254 20.3284 12.5889 20.4807C12.6523 20.633 12.7453 20.7713 12.8625 20.8875C12.9787 21.0047 13.117 21.0977 13.2693 21.1611C13.4216 21.2246 13.585 21.2572 13.75 21.2572C13.915 21.2572 14.0784 21.2246 14.2307 21.1611C14.383 21.0977 14.5213 21.0047 14.6375 20.8875L19.6375 15.8875C19.7513 15.7686 19.8405 15.6284 19.9 15.475C20.025 15.1707 20.025 14.8293 19.9 14.525C19.8405 14.3716 19.7513 14.2314 19.6375 14.1125L14.6375 9.1125C14.521 8.99595 14.3826 8.9035 14.2303 8.84043C14.078 8.77735 13.9148 8.74489 13.75 8.74489C13.5852 8.74489 13.422 8.77735 13.2697 8.84043C13.1174 8.9035 12.979 8.99595 12.8625 9.1125C12.746 9.22905 12.6535 9.36741 12.5904 9.51969C12.5273 9.67197 12.4949 9.83518 12.4949 10C12.4949 10.1648 12.5273 10.328 12.5904 10.4803C12.6535 10.6326 12.746 10.771 12.8625 10.8875L15.7375 13.75H6.25C5.91848 13.75 5.60054 13.8817 5.36612 14.1161C5.1317 14.3505 5 14.6685 5 15ZM21.25 2.5H8.75C7.75544 2.5 6.80161 2.89509 6.09835 3.59835C5.39509 4.30161 5 5.25544 5 6.25V10C5 10.3315 5.1317 10.6495 5.36612 10.8839C5.60054 11.1183 5.91848 11.25 6.25 11.25C6.58152 11.25 6.89946 11.1183 7.13388 10.8839C7.3683 10.6495 7.5 10.3315 7.5 10V6.25C7.5 5.91848 7.6317 5.60054 7.86612 5.36612C8.10054 5.1317 8.41848 5 8.75 5H21.25C21.5815 5 21.8995 5.1317 22.1339 5.36612C22.3683 5.60054 22.5 5.91848 22.5 6.25V23.75C22.5 24.0815 22.3683 24.3995 22.1339 24.6339C21.8995 24.8683 21.5815 25 21.25 25H8.75C8.41848 25 8.10054 24.8683 7.86612 24.6339C7.6317 24.3995 7.5 24.0815 7.5 23.75V20C7.5 19.6685 7.3683 19.3505 7.13388 19.1161C6.89946 18.8817 6.58152 18.75 6.25 18.75C5.91848 18.75 5.60054 18.8817 5.36612 19.1161C5.1317 19.3505 5 19.6685 5 20V23.75C5 24.7446 5.39509 25.6984 6.09835 26.4017C6.80161 27.1049 7.75544 27.5 8.75 27.5H21.25C22.2446 27.5 23.1984 27.1049 23.9017 26.4017C24.6049 25.6984 25 24.7446 25 23.75V6.25C25 5.25544 24.6049 4.30161 23.9017 3.59835C23.1984 2.89509 22.2446 2.5 21.25 2.5Z" fill="#636E7B"/>
</svg>
