<svg width="30" height="30" viewBox="0 0 30 30" fill="none" xmlns="http://www.w3.org/2000/svg">
<path d="M21.9917 24.002H20.9917V22.335C20.9886 21.7627 20.8873 21.1952 20.6921 20.6572C20.6812 20.6279 20.6697 20.6006 20.6562 20.5727C20.4943 20.1311 20.2705 19.7147 19.9917 19.3359L18.5918 17.4687C18.2034 16.9486 17.9929 16.3171 17.9917 15.668V14.6582C17.994 13.8631 18.3096 13.101 18.8701 12.5371L19.5273 11.8798C20.291 11.1121 20.7815 10.1149 20.9236 9.04145C20.9242 9.02754 20.9316 9.01594 20.9316 9.0019L20.9288 8.98817C20.9636 8.77525 20.9846 8.56031 20.9917 8.34468V6.00195H21.9917C22.2569 6.00195 22.5113 5.8966 22.6988 5.70906C22.8864 5.52152 22.9917 5.26717 22.9917 5.00195C22.9917 4.73674 22.8864 4.48238 22.6988 4.29485C22.5113 4.10731 22.2569 4.00195 21.9917 4.00195H7.99171C7.72649 4.00195 7.47214 4.10731 7.2846 4.29485C7.09707 4.48238 6.99171 4.73674 6.99171 5.00195C6.99171 5.26717 7.09707 5.52152 7.2846 5.70906C7.47214 5.8966 7.72649 6.00195 7.99171 6.00195H8.99171V8.34468C8.99881 8.56031 9.01981 8.77525 9.05458 8.98817L9.05176 9.00195C9.05176 9.01595 9.0592 9.02759 9.05976 9.0415C9.20192 10.115 9.69245 11.1121 10.4561 11.8799L11.1133 12.5371C11.6738 13.101 11.9894 13.8631 11.9917 14.6582V15.668C11.9904 16.317 11.7802 16.9484 11.3921 17.4687L9.99121 19.3359C9.71245 19.7149 9.48878 20.1314 9.32684 20.5731C9.31354 20.6008 9.30212 20.6277 9.29132 20.6568C9.09618 21.1949 8.99483 21.7625 8.9917 22.335V24.002H7.9917C7.72648 24.002 7.47213 24.1073 7.28459 24.2948C7.09706 24.4824 6.9917 24.7367 6.9917 25.002C6.9917 25.2672 7.09706 25.5215 7.28459 25.7091C7.47213 25.8966 7.72648 26.002 7.9917 26.002H21.9917C22.2569 26.002 22.5113 25.8966 22.6988 25.7091C22.8863 25.5215 22.9917 25.2672 22.9917 25.002C22.9917 24.7367 22.8863 24.4824 22.6988 24.2948C22.5113 24.1073 22.2569 24.002 21.9917 24.002ZM10.9917 8.00195V6.00195H18.9917V8.00195H10.9917ZM11.8701 10.4658C11.7292 10.3243 11.6029 10.1689 11.4932 10.002H18.4902C18.3805 10.1689 18.2542 10.3243 18.1133 10.4658L17.456 11.1231C16.676 11.8985 16.1758 12.9112 16.0342 14.002H13.9492C13.8075 12.9112 13.3074 11.8984 12.5273 11.123L11.8701 10.4658ZM12.9922 18.668C13.5708 17.8926 13.9139 16.9671 13.9805 16.002H16.0029C16.0694 16.9672 16.4127 17.8928 16.9917 18.668L17.9918 20.002H11.9913L12.9922 18.668ZM18.9917 24.002H10.9917V22.335C10.9945 22.2235 11.0036 22.1124 11.0189 22.002H18.9645C18.9798 22.1124 18.9889 22.2235 18.9917 22.335V24.002Z" fill="#66CC99"/>
</svg>
