<svg width="24" height="24" viewBox="0 0 24 24" fill="none" xmlns="http://www.w3.org/2000/svg">
<path d="M21.41 8.63988C21.41 8.63988 21.41 8.63988 21.41 8.58988C20.7054 6.6661 19.4269 5.00516 17.7475 3.83174C16.0681 2.65832 14.0687 2.02905 12.02 2.02905C9.97125 2.02905 7.97193 2.65832 6.29251 3.83174C4.61308 5.00516 3.3346 6.6661 2.63 8.58988C2.63 8.58988 2.63 8.58988 2.63 8.63988C1.84312 10.8108 1.84312 13.189 2.63 15.3599C2.63 15.3599 2.63 15.3599 2.63 15.4099C3.3346 17.3337 4.61308 18.9946 6.29251 20.168C7.97193 21.3414 9.97125 21.9707 12.02 21.9707C14.0687 21.9707 16.0681 21.3414 17.7475 20.168C19.4269 18.9946 20.7054 17.3337 21.41 15.4099C21.41 15.4099 21.41 15.4099 21.41 15.3599C22.1969 13.189 22.1969 10.8108 21.41 8.63988ZM4.26 13.9999C3.91322 12.6891 3.91322 11.3107 4.26 9.99988H6.12C5.96003 11.3284 5.96003 12.6713 6.12 13.9999H4.26ZM5.08 15.9999H6.48C6.71472 16.8917 7.05021 17.7539 7.48 18.5699C6.4993 17.9018 5.67949 17.0239 5.08 15.9999ZM6.48 7.99988H5.08C5.67087 6.97897 6.48019 6.10135 7.45 5.42988C7.03055 6.24713 6.70514 7.1093 6.48 7.99988ZM11 19.6999C9.77176 18.7986 8.90915 17.4851 8.57 15.9999H11V19.6999ZM11 13.9999H8.14C7.95339 12.6731 7.95339 11.3267 8.14 9.99988H11V13.9999ZM11 7.99988H8.57C8.90915 6.51465 9.77176 5.2012 11 4.29988V7.99988ZM18.92 7.99988H17.52C17.2853 7.10804 16.9498 6.24582 16.52 5.42988C17.5007 6.09795 18.3205 6.97582 18.92 7.99988ZM13 4.29988C14.2282 5.2012 15.0908 6.51465 15.43 7.99988H13V4.29988ZM13 19.6999V15.9999H15.43C15.0908 17.4851 14.2282 18.7986 13 19.6999ZM15.86 13.9999H13V9.99988H15.86C16.0466 11.3267 16.0466 12.6731 15.86 13.9999ZM16.55 18.5699C16.9798 17.7539 17.3153 16.8917 17.55 15.9999H18.95C18.3505 17.0239 17.5307 17.9018 16.55 18.5699ZM19.74 13.9999H17.88C17.9613 13.3363 18.0014 12.6684 18 11.9999C18.0011 11.3314 17.961 10.6635 17.88 9.99988H19.74C20.0868 11.3107 20.0868 12.6891 19.74 13.9999Z" fill="#636E7B"/>
</svg>
