<svg width="20" height="20" viewBox="0 0 20 20" fill="none" xmlns="http://www.w3.org/2000/svg">
<path d="M18.3333 1.66675H1.66665C1.44563 1.66675 1.23367 1.75455 1.07739 1.91083C0.92111 2.06711 0.833313 2.27907 0.833313 2.50008V5.83342C0.834763 6.3492 0.995712 6.85192 1.29409 7.27264C1.59248 7.69336 2.01369 8.01149 2.49998 8.18341V17.5001C2.49998 17.7211 2.58778 17.9331 2.74406 18.0893C2.90034 18.2456 3.1123 18.3334 3.33331 18.3334H16.6666C16.8877 18.3334 17.0996 18.2456 17.2559 18.0893C17.4122 17.9331 17.5 17.7211 17.5 17.5001V8.18341C17.9863 8.01149 18.4075 7.69336 18.7059 7.27264C19.0042 6.85192 19.1652 6.3492 19.1666 5.83342V2.50008C19.1666 2.27907 19.0788 2.06711 18.9226 1.91083C18.7663 1.75455 18.5543 1.66675 18.3333 1.66675ZM12.5 3.33341H14.1666V5.83342C14.1666 6.05443 14.0788 6.26639 13.9226 6.42267C13.7663 6.57895 13.5543 6.66675 13.3333 6.66675C13.1123 6.66675 12.9003 6.57895 12.7441 6.42267C12.5878 6.26639 12.5 6.05443 12.5 5.83342V3.33341ZM9.16665 3.33341H10.8333V5.83342C10.8333 6.05443 10.7455 6.26639 10.5892 6.42267C10.433 6.57895 10.221 6.66675 9.99998 6.66675C9.77896 6.66675 9.567 6.57895 9.41072 6.42267C9.25444 6.26639 9.16665 6.05443 9.16665 5.83342V3.33341ZM5.83331 3.33341H7.49998V5.83342C7.49998 6.05443 7.41218 6.26639 7.2559 6.42267C7.09962 6.57895 6.88766 6.66675 6.66665 6.66675C6.44563 6.66675 6.23367 6.57895 6.07739 6.42267C5.92111 6.26639 5.83331 6.05443 5.83331 5.83342V3.33341ZM3.33331 6.66675C3.1123 6.66675 2.90034 6.57895 2.74406 6.42267C2.58778 6.26639 2.49998 6.05443 2.49998 5.83342V3.33341H4.16665V5.83342C4.16665 6.05443 4.07885 6.26639 3.92257 6.42267C3.76629 6.57895 3.55433 6.66675 3.33331 6.66675ZM11.6666 16.6667H8.33331V13.3334C8.33331 12.8914 8.50891 12.4675 8.82147 12.1549C9.13403 11.8423 9.55795 11.6667 9.99998 11.6667C10.442 11.6667 10.8659 11.8423 11.1785 12.1549C11.4911 12.4675 11.6666 12.8914 11.6666 13.3334V16.6667ZM15.8333 16.6667H13.3333V13.3334C13.3333 12.4494 12.9821 11.6015 12.357 10.9764C11.7319 10.3513 10.884 10.0001 9.99998 10.0001C9.11592 10.0001 8.26808 10.3513 7.64296 10.9764C7.01784 11.6015 6.66665 12.4494 6.66665 13.3334V16.6667H4.16665V8.18341C4.47295 8.06972 4.75551 7.90018 4.99998 7.68342C5.45833 8.09338 6.0517 8.32003 6.66665 8.32003C7.28159 8.32003 7.87496 8.09338 8.33331 7.68342C8.79166 8.09338 9.38504 8.32003 9.99998 8.32003C10.6149 8.32003 11.2083 8.09338 11.6666 7.68342C12.125 8.09338 12.7184 8.32003 13.3333 8.32003C13.9483 8.32003 14.5416 8.09338 15 7.68342C15.2444 7.90018 15.527 8.06972 15.8333 8.18341V16.6667ZM17.5 5.83342C17.5 6.05443 17.4122 6.26639 17.2559 6.42267C17.0996 6.57895 16.8877 6.66675 16.6666 6.66675C16.4456 6.66675 16.2337 6.57895 16.0774 6.42267C15.9211 6.26639 15.8333 6.05443 15.8333 5.83342V3.33341H17.5V5.83342Z" fill="#00CC66"/>
</svg>
