<svg width="116" height="200" viewBox="0 0 116 200" fill="none" xmlns="http://www.w3.org/2000/svg">
<rect x="81.5" y="0.5" width="199" height="69" rx="1.5" transform="rotate(90 81.5 0.5)" fill="white" stroke="#A9F185"/>
<path d="M46.9999 72C43.7168 72 40.4659 72.6466 37.4328 73.903C34.3997 75.1593 31.6437 77.0008 29.3222 79.3223C24.6338 84.0107 21.9999 90.3696 21.9999 97C21.978 102.773 23.9769 108.371 27.6499 112.825L22.6499 117.825C22.303 118.177 22.068 118.623 21.9746 119.108C21.8811 119.593 21.9334 120.095 22.1249 120.55C22.3325 121 22.6691 121.378 23.092 121.636C23.5149 121.894 24.0049 122.021 24.4999 122H46.9999C53.6303 122 59.9891 119.366 64.6776 114.678C69.366 109.989 71.9999 103.63 71.9999 97C71.9999 90.3696 69.366 84.0107 64.6776 79.3223C59.9891 74.6339 53.6303 72 46.9999 72ZM46.9999 117H30.5249L32.8499 114.675C33.3155 114.207 33.5769 113.573 33.5769 112.912C33.5769 112.252 33.3155 111.618 32.8499 111.15C29.5763 107.88 27.5378 103.576 27.0816 98.972C26.6254 94.3676 27.7797 89.7475 30.3479 85.8988C32.9162 82.0501 36.7394 79.2109 41.1662 77.8649C45.593 76.5189 50.3495 76.7495 54.6254 78.5173C58.9013 80.285 62.432 83.4807 64.616 87.5597C66.7999 91.6387 67.5021 96.3488 66.6027 100.887C65.7033 105.426 63.2582 109.513 59.6837 112.451C56.1093 115.389 51.6268 116.996 46.9999 117Z" fill="#00B956"/>
</svg>
