<svg width="288" height="159" viewBox="0 0 288 159" fill="none" xmlns="http://www.w3.org/2000/svg">
<rect x="287.5" y="158.5" width="287" height="158" rx="1.5" transform="rotate(-180 287.5 158.5)" fill="white" stroke="#A9F185"/>
<path d="M179 30C177.674 30 176.402 30.5268 175.464 31.4645C174.527 32.4021 174 33.6739 174 35V62.3L169 65.65V35C169 33.6739 168.473 32.4021 167.536 31.4645C166.598 30.5268 165.326 30 164 30C162.674 30 161.402 30.5268 160.464 31.4645C159.527 32.4021 159 33.6739 159 35V65.65L154 62.3V35C154 33.6739 153.473 32.4021 152.536 31.4645C151.598 30.5268 150.326 30 149 30C147.674 30 146.402 30.5268 145.464 31.4645C144.527 32.4021 144 33.6739 144 35V65C144.004 65.8235 144.212 66.6333 144.604 67.3573C144.997 68.0812 145.562 68.6971 146.25 69.15L159 77.7V125C159 126.326 159.527 127.598 160.464 128.536C161.402 129.473 162.674 130 164 130C165.326 130 166.598 129.473 167.536 128.536C168.473 127.598 169 126.326 169 125V77.7L181.75 69.15C182.438 68.6971 183.003 68.0812 183.396 67.3573C183.788 66.6333 183.996 65.8235 184 65V35C184 33.6739 183.473 32.4021 182.536 31.4645C181.598 30.5268 180.326 30 179 30ZM129 30C122.37 30 116.011 32.6339 111.322 37.3223C106.634 42.0107 104 48.3696 104 55V85C104 86.3261 104.527 87.5979 105.464 88.5355C106.402 89.4732 107.674 90 109 90H124V125C124 126.326 124.527 127.598 125.464 128.536C126.402 129.473 127.674 130 129 130C130.326 130 131.598 129.473 132.536 128.536C133.473 127.598 134 126.326 134 125V35C134 33.6739 133.473 32.4021 132.536 31.4645C131.598 30.5268 130.326 30 129 30ZM124 80H114V55C113.998 51.8967 114.959 48.8694 116.75 46.3351C118.541 43.8008 121.074 41.8844 124 40.85V80Z" fill="#00B956"/>
</svg>
