<svg width="130" height="100" viewBox="0 0 130 100" fill="none" xmlns="http://www.w3.org/2000/svg">
<rect x="129.5" y="0.5" width="99" height="129" rx="1.5" transform="rotate(90 129.5 0.5)" fill="white" stroke="#A9F185"/>
<path d="M4.13721 58.8417L5.55322 58.8417L8.37061 63.5683L8.37061 58.8417L9.73779 58.8417L9.73779 65.9999L8.26318 65.9999L5.48975 61.4003L5.48975 65.9999L4.13721 65.9999L4.13721 58.8417ZM10.1968 62.1279C10.1968 61.5191 10.3774 61.0357 10.7388 60.6777C11.1034 60.3163 11.5656 60.1357 12.1255 60.1357C12.6919 60.1357 13.1574 60.3294 13.522 60.7167C13.8866 61.1009 14.0688 61.5826 14.0688 62.162C14.0688 62.5266 13.9956 62.8522 13.8491 63.1386C13.7026 63.4218 13.4927 63.6594 13.2192 63.8515C12.9491 64.0403 12.5975 64.1347 12.1646 64.1347C11.5526 64.1347 11.0708 63.941 10.7192 63.5536C10.3709 63.1663 10.1968 62.691 10.1968 62.1279ZM11.5249 62.2548C11.5249 62.5641 11.5754 62.7968 11.6763 62.9531C11.7772 63.1061 11.9285 63.1826 12.1304 63.1826C12.342 63.1826 12.4998 63.0865 12.604 62.8945C12.7082 62.7024 12.7603 62.4143 12.7603 62.0302C12.7603 61.7112 12.7114 61.4719 12.6138 61.3124C12.5194 61.1529 12.3761 61.0732 12.1841 61.0732C11.966 61.0732 11.8016 61.1725 11.6909 61.371C11.5802 61.5663 11.5249 61.8609 11.5249 62.2548ZM10.3726 64.6035L13.8638 64.6035L13.8638 65.6826L10.3726 65.6826L10.3726 64.6035ZM18.0093 58.8417L20.8706 58.8417C21.437 58.8417 21.8586 58.8661 22.1353 58.915C22.4152 58.9606 22.6642 59.0582 22.8823 59.2079C23.1037 59.3577 23.2876 59.5579 23.4341 59.8085C23.5806 60.0559 23.6538 60.3342 23.6538 60.6435C23.6538 60.9788 23.5627 61.2864 23.3804 61.5663C23.2013 61.8463 22.9572 62.0563 22.6479 62.1962C23.0841 62.3232 23.4194 62.5397 23.6538 62.8456C23.8882 63.1516 24.0054 63.5113 24.0054 63.9247C24.0054 64.2503 23.9289 64.5676 23.7759 64.8769C23.6261 65.1829 23.4194 65.4286 23.1558 65.6142C22.8953 65.7965 22.5731 65.9088 22.189 65.9511C21.9481 65.9772 21.367 65.9934 20.4458 65.9999L18.0093 65.9999L18.0093 58.8417ZM19.4546 60.0331L19.4546 61.6884L20.4019 61.6884C20.965 61.6884 21.3149 61.6803 21.4517 61.664C21.6991 61.6347 21.8927 61.5501 22.0327 61.4101C22.1759 61.2669 22.2476 61.0797 22.2476 60.8486C22.2476 60.6272 22.1857 60.4482 22.062 60.3115C21.9416 60.1715 21.7609 60.0869 21.52 60.0576C21.3768 60.0413 20.965 60.0331 20.2847 60.0331L19.4546 60.0331ZM19.4546 62.8798L19.4546 64.7939L20.7925 64.7939C21.3133 64.7939 21.6437 64.7792 21.7837 64.7499C21.9985 64.7109 22.1727 64.6165 22.3062 64.4667C22.4429 64.3137 22.5112 64.1103 22.5112 63.8564C22.5112 63.6415 22.4591 63.4592 22.355 63.3095C22.2508 63.1598 22.0994 63.0507 21.9009 62.9824C21.7056 62.914 21.2791 62.8798 20.6216 62.8798L19.4546 62.8798ZM24.9478 64.1591L26.3149 64.0175C26.354 64.3268 26.4696 64.5725 26.6616 64.7548C26.8537 64.9339 27.075 65.0234 27.3257 65.0234C27.6121 65.0234 27.8547 64.9078 28.0532 64.6767C28.2518 64.4423 28.3511 64.0908 28.3511 63.622C28.3511 63.1826 28.2518 62.8538 28.0532 62.6357C27.8579 62.4143 27.6024 62.3036 27.2866 62.3036C26.8927 62.3036 26.5396 62.4778 26.2271 62.8261L25.1138 62.665L25.8169 58.9394L29.4448 58.9394L29.4448 60.2236L26.8569 60.2236L26.6421 61.4394C26.9481 61.2864 27.2606 61.2099 27.5796 61.2099C28.1883 61.2099 28.7043 61.4313 29.1274 61.874C29.5506 62.3167 29.7622 62.8912 29.7622 63.5976C29.7622 64.1868 29.5913 64.7125 29.2495 65.1747C28.784 65.8063 28.1379 66.122 27.311 66.122C26.6502 66.122 26.1115 65.9446 25.6948 65.5898C25.2782 65.235 25.0291 64.7581 24.9478 64.1591Z" fill="#68696E"/>
<path d="M2.5332 45.791L4.17383 45.6211C4.2207 45.9922 4.35938 46.2871 4.58984 46.5059C4.82031 46.7207 5.08594 46.8281 5.38672 46.8281C5.73047 46.8281 6.02148 46.6895 6.25977 46.4121C6.49805 46.1309 6.61719 45.709 6.61719 45.1465C6.61719 44.6191 6.49805 44.2246 6.25977 43.9629C6.02539 43.6973 5.71875 43.5645 5.33984 43.5645C4.86719 43.5645 4.44336 43.7734 4.06836 44.1914L2.73242 43.998L3.57617 39.5273L7.92969 39.5273L7.92969 41.0684L4.82422 41.0684L4.56641 42.5273C4.93359 42.3437 5.30859 42.252 5.69141 42.252C6.42188 42.252 7.04102 42.5176 7.54883 43.0488C8.05664 43.5801 8.31055 44.2695 8.31055 45.1172C8.31055 45.8242 8.10547 46.4551 7.69531 47.0098C7.13672 47.7676 6.36133 48.1465 5.36914 48.1465C4.57617 48.1465 3.92969 47.9336 3.42969 47.5078C2.92969 47.082 2.63086 46.5098 2.5332 45.791ZM13.5488 44.8418L13.5488 43.3945L17.2871 43.3945L17.2871 46.8164C16.9238 47.168 16.3965 47.4785 15.7051 47.748C15.0176 48.0137 14.3203 48.1465 13.6133 48.1465C12.7148 48.1465 11.9316 47.959 11.2637 47.584C10.5957 47.2051 10.0938 46.666 9.75781 45.9668C9.42188 45.2637 9.25391 44.5 9.25391 43.6758C9.25391 42.7812 9.44141 41.9863 9.81641 41.291C10.1914 40.5957 10.7402 40.0625 11.4629 39.6914C12.0137 39.4062 12.6992 39.2637 13.5195 39.2637C14.5859 39.2637 15.418 39.4883 16.0156 39.9375C16.6172 40.3828 17.0039 41 17.1758 41.7891L15.4531 42.1113C15.332 41.6895 15.1035 41.3574 14.7676 41.1152C14.4355 40.8691 14.0195 40.7461 13.5195 40.7461C12.7617 40.7461 12.1582 40.9863 11.709 41.4668C11.2637 41.9473 11.041 42.6602 11.041 43.6055C11.041 44.625 11.2676 45.3906 11.7207 45.9023C12.1738 46.4102 12.7676 46.6641 13.502 46.6641C13.8652 46.6641 14.2285 46.5937 14.5918 46.4531C14.959 46.3086 15.2734 46.1348 15.5352 45.9316L15.5352 44.8418L13.5488 44.8418ZM17.9082 50.373L17.9082 49.3066L24.752 49.3066L24.752 50.373L17.9082 50.373ZM25.5664 39.4102L28.7363 39.4102C29.4512 39.4102 29.9961 39.4648 30.3711 39.5742C30.875 39.7227 31.3066 39.9863 31.666 40.3652C32.0254 40.7441 32.2988 41.209 32.4863 41.7598C32.6738 42.3066 32.7676 42.9824 32.7676 43.7871C32.7676 44.4941 32.6797 45.1035 32.5039 45.6152C32.2891 46.2402 31.9824 46.7461 31.584 47.1328C31.2832 47.4258 30.877 47.6543 30.3652 47.8184C29.9824 47.9395 29.4707 48 28.8301 48L25.5664 48L25.5664 39.4102ZM27.3008 40.8633L27.3008 46.5527L28.5957 46.5527C29.0801 46.5527 29.4297 46.5254 29.6445 46.4707C29.9258 46.4004 30.1582 46.2812 30.3418 46.1133C30.5293 45.9453 30.6816 45.6699 30.7988 45.2871C30.916 44.9004 30.9746 44.375 30.9746 43.7109C30.9746 43.0469 30.916 42.5371 30.7988 42.1816C30.6816 41.8262 30.5176 41.5488 30.3066 41.3496C30.0957 41.1504 29.8281 41.0156 29.5039 40.9453C29.2617 40.8906 28.7871 40.8633 28.0801 40.8633L27.3008 40.8633ZM34.25 48L34.25 39.4102L37.9004 39.4102C38.8184 39.4102 39.4844 39.4883 39.8984 39.6445C40.3164 39.7969 40.6504 40.0703 40.9004 40.4648C41.1504 40.8594 41.2754 41.3105 41.2754 41.8184C41.2754 42.4629 41.0859 42.9961 40.707 43.418C40.3281 43.8359 39.7617 44.0996 39.0078 44.209C39.3828 44.4277 39.6914 44.668 39.9336 44.9297C40.1797 45.1914 40.5098 45.6562 40.9238 46.3242L41.9727 48L39.8984 48L38.6445 46.1309C38.1992 45.4629 37.8945 45.043 37.7305 44.8711C37.5664 44.6953 37.3926 44.5762 37.209 44.5137C37.0254 44.4473 36.7344 44.4141 36.3359 44.4141L35.9844 44.4141L35.9844 48L34.25 48ZM35.9844 43.043L37.2676 43.043C38.0996 43.043 38.6191 43.0078 38.8262 42.9375C39.0332 42.8672 39.1953 42.7461 39.3125 42.5742C39.4297 42.4023 39.4883 42.1875 39.4883 41.9297C39.4883 41.6406 39.4102 41.4082 39.2539 41.2324C39.1016 41.0527 38.8848 40.9395 38.6035 40.8926C38.4629 40.873 38.041 40.8633 37.3379 40.8633L35.9844 40.8633L35.9844 43.043ZM42.916 48L42.916 39.4102L49.2852 39.4102L49.2852 40.8633L44.6504 40.8633L44.6504 42.7676L48.9629 42.7676L48.9629 44.2148L44.6504 44.2148L44.6504 46.5527L49.4492 46.5527L49.4492 48L42.916 48ZM58.666 48L56.7793 48L56.0293 46.0488L52.5957 46.0488L51.8867 48L50.0469 48L53.3926 39.4102L55.2266 39.4102L58.666 48ZM55.4727 44.6016L54.2891 41.4141L53.1289 44.6016L55.4727 44.6016ZM59.5684 48L59.5684 39.4102L62.1641 39.4102L63.7227 45.2695L65.2637 39.4102L67.8652 39.4102L67.8652 48L66.2539 48L66.2539 41.2383L64.5488 48L62.8789 48L61.1797 41.2383L61.1797 48L59.5684 48ZM68.6035 50.373L68.6035 49.3066L75.4473 49.3066L75.4473 50.373L68.6035 50.373ZM76.3145 48L76.3145 39.4805L78.0488 39.4805L78.0488 46.5527L82.3613 46.5527L82.3613 48L76.3145 48ZM91.3496 48L89.4629 48L88.7129 46.0488L85.2793 46.0488L84.5703 48L82.7305 48L86.0762 39.4102L87.9102 39.4102L91.3496 48ZM88.1563 44.6016L86.9727 41.4141L85.8125 44.6016L88.1563 44.6016ZM92.2813 39.4102L95.7148 39.4102C96.3945 39.4102 96.9004 39.4395 97.2324 39.498C97.5684 39.5527 97.8672 39.6699 98.1289 39.8496C98.3945 40.0293 98.6152 40.2695 98.791 40.5703C98.9668 40.8672 99.0547 41.2012 99.0547 41.5723C99.0547 41.9746 98.9453 42.3437 98.7266 42.6797C98.5117 43.0156 98.2188 43.2676 97.8477 43.4355C98.3711 43.5879 98.7734 43.8477 99.0547 44.2148C99.3359 44.582 99.4766 45.0137 99.4766 45.5098C99.4766 45.9004 99.3848 46.2812 99.2012 46.6523C99.0215 47.0195 98.7734 47.3145 98.457 47.5371C98.1445 47.7559 97.7578 47.8906 97.2969 47.9414C97.0078 47.9727 96.3105 47.9922 95.2051 48L92.2813 48L92.2813 39.4102ZM94.0156 40.8398L94.0156 42.8262L95.1523 42.8262C95.8281 42.8262 96.248 42.8164 96.4121 42.7969C96.709 42.7617 96.9414 42.6602 97.1094 42.4922C97.2813 42.3203 97.3672 42.0957 97.3672 41.8184C97.3672 41.5527 97.293 41.3379 97.1445 41.1738C97 41.0059 96.7832 40.9043 96.4941 40.8691C96.3223 40.8496 95.8281 40.8398 95.0117 40.8398L94.0156 40.8398ZM94.0156 44.2559L94.0156 46.5527L95.6211 46.5527C96.2461 46.5527 96.6426 46.5352 96.8105 46.5C97.0684 46.4531 97.2773 46.3398 97.4375 46.1602C97.6016 45.9766 97.6836 45.7324 97.6836 45.4277C97.6836 45.1699 97.6211 44.9512 97.4961 44.7715C97.3711 44.5918 97.1895 44.4609 96.9512 44.3789C96.7168 44.2969 96.2051 44.2559 95.416 44.2559L94.0156 44.2559Z" fill="#68696E"/>
<path d="M101.992 61L106.422 60.625C106.75 62.7812 107.508 64.4062 108.695 65.5C109.898 66.5781 111.344 67.1172 113.031 67.1172C115.063 67.1172 116.781 66.3516 118.188 64.8203C119.594 63.2891 120.297 61.2578 120.297 58.7266C120.297 56.3203 119.617 54.4219 118.258 53.0312C116.914 51.6406 115.148 50.9453 112.961 50.9453C111.602 50.9453 110.375 51.2578 109.281 51.8828C108.188 52.4922 107.328 53.2891 106.703 54.2734L102.742 53.7578L106.07 36.1094L123.156 36.1094L123.156 40.1406L109.445 40.1406L107.594 49.375C109.656 47.9375 111.82 47.2187 114.086 47.2187C117.086 47.2187 119.617 48.2578 121.68 50.3359C123.742 52.4141 124.773 55.0859 124.773 58.3516C124.773 61.4609 123.867 64.1484 122.055 66.4141C119.852 69.1953 116.844 70.5859 113.031 70.5859C109.906 70.5859 107.352 69.7109 105.367 67.9609C103.398 66.2109 102.273 63.8906 101.992 61Z" fill="#00B956"/>
</svg>
