<svg width="11" height="13" viewBox="0 0 11 13" fill="none" xmlns="http://www.w3.org/2000/svg">
<path d="M1.96351 12.885V10.959H0.523506V9.21301H1.96351V7.80901H0.523506V5.57701H1.96351V0.0330089H6.06751C7.72351 0.0330089 8.92951 0.369009 9.68551 1.04101C10.4535 1.71301 10.8375 2.63701 10.8375 3.81301C10.8375 4.50901 10.6815 5.16301 10.3695 5.77501C10.0575 6.38701 9.53551 6.87901 8.80351 7.25101C8.08351 7.62301 7.09951 7.80901 5.85151 7.80901H4.68151V9.21301H7.45351V10.959H4.68151V12.885H1.96351ZM5.58151 5.57701C6.34951 5.57701 6.95551 5.44501 7.39951 5.18101C7.85551 4.91701 8.08351 4.49101 8.08351 3.90301C8.08351 2.81101 7.36351 2.26501 5.92351 2.26501H4.68151V5.57701H5.58151Z" fill="#66CC99"/>
</svg>
